<?xml version="1.0" encoding="UTF-8" standalone="no"?>
<svg
   xmlns:dc="http://purl.org/dc/elements/1.1/"
   xmlns:cc="http://creativecommons.org/ns#"
   xmlns:rdf="http://www.w3.org/1999/02/22-rdf-syntax-ns#"
   xmlns:svg="http://www.w3.org/2000/svg"
   xmlns="http://www.w3.org/2000/svg"
   xmlns:sodipodi="http://sodipodi.sourceforge.net/DTD/sodipodi-0.dtd"
   xmlns:inkscape="http://www.inkscape.org/namespaces/inkscape"
   width="309px"
   height="309px"
   viewBox="0 0 309 309"
   version="1.1"
   id="svg879"
   sodipodi:docname="logo.svg"
   inkscape:version="0.92.3 (2405546, 2018-03-11)">
  <metadata
     id="metadata883">
    <rdf:RDF>
      <cc:Work
         rdf:about="">
        <dc:format>image/svg+xml</dc:format>
        <dc:type
           rdf:resource="http://purl.org/dc/dcmitype/StillImage" />
        <dc:title>rust_wasm4</dc:title>
      </cc:Work>
    </rdf:RDF>
  </metadata>
  <sodipodi:namedview
     pagecolor="#ffffff"
     bordercolor="#666666"
     borderopacity="1"
     objecttolerance="10"
     gridtolerance="10"
     guidetolerance="10"
     inkscape:pageopacity="0"
     inkscape:pageshadow="2"
     inkscape:window-width="1920"
     inkscape:window-height="1004"
     id="namedview881"
     showgrid="false"
     inkscape:zoom="1.8215437"
     inkscape:cx="150.24467"
     inkscape:cy="139.70696"
     inkscape:window-x="0"
     inkscape:window-y="0"
     inkscape:window-maximized="1"
     inkscape:current-layer="g1028" />
  <!-- Generator: Sketch 50.2 (55047) - http://www.bohemiancoding.com/sketch -->
  <title
     id="title869">rust_wasm4</title>
  <desc
     id="desc871">Created with Sketch.</desc>
  <defs
     id="defs873" />
  <g
     style="fill:#000000;fill-rule:nonzero;stroke:none;stroke-width:1"
     id="rust_wasm4">
    <path
       inkscape:connector-curvature="0"
       id="path4404"
       d="m 238.90927,25.213761 c -1.293,-0.846615 -2.93335,-0.965275 -4.32845,-0.309921 l -13.81343,6.450417 c -1.11276,-0.605048 -2.23612,-1.193908 -3.3608,-1.764607 l -2.58728,-15.014529 c -0.26372,-1.519422 -1.29701,-2.796893 -2.72608,-3.376517 -1.43722,-0.57792 -3.06313,-0.374554 -4.30963,0.543822 l -12.25627,8.995653 c -1.22535,-0.379261 -2.45178,-0.735592 -3.68092,-1.082167 L 186.38673,5.4673122 c -0.55272,-1.444223 -1.81678,-2.4998241 -3.33745,-2.7833763 -1.51501,-0.2868664 -3.07481,0.2326952 -4.11577,1.3702389 L 168.65747,15.273986 c -1.26907,-0.129402 -2.53943,-0.23522 -3.81229,-0.331843 L 156.72068,2.0752837 C 155.89585,0.76665499 154.45194,-0.01894198 152.90918,3.7223183e-4 151.36479,0.01148907 149.93191,0.82467035 149.13626,2.1475432 l -7.89922,13.0396278 c -1.25559,0.119158 -2.51451,0.259563 -3.76736,0.4123 L 126.96909,4.5424119 c -1.06867,-1.1192684 -2.63402,-1.6100302 -4.14489,-1.2947275 -1.51739,0.3144507 -2.75782,1.3904985 -3.28732,2.8453189 l -5.20332,14.3333997 c -1.20533,0.360123 -2.41127,0.730968 -3.60973,1.123746 L 98.267249,12.760458 c -1.261389,-0.878812 -2.89426,-1.065107 -4.316785,-0.459395 -1.421758,0.599166 -2.429307,1.899286 -2.666142,3.42941 l -2.304107,15.045666 c -1.122362,0.594221 -2.246863,1.197585 -3.361579,1.828565 L 71.721728,26.42507 c -1.41147,-0.62806 -3.045899,-0.482086 -4.323872,0.3875 -1.277128,0.873618 -2.008504,2.346485 -1.942551,3.888006 l 0.671554,15.184471 c -0.990519,0.807457 -1.973211,1.623817 -2.944674,2.461383 L 48.351366,45.002038 c -1.504799,-0.340082 -3.080221,0.12109 -4.164004,1.227133 -1.082172,1.103538 -1.517491,2.686223 -1.150863,4.18842 l 3.631035,14.790644 c -0.802727,0.972734 -1.596094,1.965738 -2.374813,2.961225 L 29.052386,67.780589 c -1.542388,-0.04031 -2.9952,0.719384 -3.84344,2.01487 -0.84823,1.295476 -0.965295,2.933371 -0.309932,4.328451 l 6.450434,13.813432 c -0.602697,1.114292 -1.19161,2.232574 -1.762289,3.357244 L 14.57617,93.884197 c -1.52191,0.262119 -2.79936,1.295413 -3.376501,2.726078 -0.580406,1.435621 -0.373897,3.065121 0.537927,4.310865 l 8.997971,12.25274 c -0.379253,1.22531 -0.73688,2.45602 -1.080915,3.68679 l -14.1862636,5.45611 c -1.4433739,0.55679 -2.5001851,1.81499 -2.784581,3.33162 -0.2876414,1.52153 0.2333428,3.08383 1.3749808,4.12396 l 11.2173868,10.26426 c -0.132595,1.27402 -0.24002,2.54135 -0.334165,3.81585 l -12.8645354,8.12095 c -1.30862276,0.8248 -2.09333548,2.26733 -2.07723143435,3.815 C 0.01472623,157.33855 0.82785629,158.77141 2.1474186,159.56138 l 13.0360554,7.89693 c 0.120931,1.26374 0.259565,2.51449 0.412299,3.76735 L 4.5363943,181.72981 c -1.1201234,1.0646 -1.6049951,2.62364 -1.2865154,4.14014 0.3078858,1.5166 1.3892612,2.75192 2.8440863,3.28143 l 14.3310718,5.20687 c 0.357749,1.21432 0.738756,2.41479 1.133162,3.61083 L 12.76264,210.4269 c -0.894439,1.25819 -1.065821,2.89531 -0.461724,4.32029 0.600776,1.4193 1.901252,2.42399 3.43052,2.65674 l 15.039811,2.3053 c 0.593437,1.12891 1.20003,2.24849 1.828533,3.36158 l -6.170207,13.89801 c -0.629645,1.41393 -0.485314,3.05083 0.387494,4.32388 0.867114,1.27633 2.344151,2.01204 3.885677,1.94608 l 15.186809,-0.6751 c 0.807473,0.99052 1.623834,1.9732 2.461414,2.94468 l -3.342101,14.82726 c -0.340107,1.5048 0.117892,3.08516 1.227135,4.16401 1.100311,1.08712 2.683479,1.51931 4.184842,1.14857 l 14.796522,-3.63225 c 0.96952,0.80766 1.959536,1.60021 2.9543,2.38548 l -0.388892,15.24031 c -0.03963,1.53584 0.721836,2.99683 2.014861,3.84346 1.293015,0.84662 2.936041,0.96355 4.332018,0.31224 l 13.809884,-6.45275 c 1.1175,0.59781 2.239825,1.18822 3.367736,1.75398 l 2.583766,15.01221 c 0.260497,1.52436 1.292125,2.80428 2.726061,3.37649 1.433985,0.58286 3.067598,0.37555 4.310861,-0.53794 l 12.25041,-8.99443 c 1.22533,0.37925 2.45602,0.73683 3.68678,1.08089 l 5.45382,14.18985 c 0.55594,1.43927 1.81734,2.49659 3.33393,2.78102 1.51583,0.29102 3.07904,-0.23142 4.12164,-1.37143 l 10.26782,-11.21506 c 1.26908,0.12938 2.54266,0.23028 3.81231,0.33182 l 8.12681,12.86333 c 0.82483,1.30862 2.26326,2.09726 3.80683,2.082 1.54768,-0.0161 2.97552,-0.82698 3.77526,-2.15071 l 7.9051,-13.04086 c 1.25557,-0.11925 2.50557,-0.24825 3.75916,-0.40751 l 10.50292,11.05351 c 1.06704,1.12174 2.62811,1.61672 4.14137,1.29237 1.51737,-0.31446 2.75245,-1.38229 3.28032,-2.83467 l 5.20565,-14.33696 c 1.2094,-0.36099 2.41511,-0.73151 3.61438,-1.13083 l 12.45426,8.79322 c 1.2517,0.89359 2.89262,1.06761 4.31679,0.4594 1.42495,-0.60409 2.4323,-1.90085 2.66257,-3.43174 l 2.30298,-15.03624 c 1.12808,-0.59754 2.24811,-1.20185 3.36036,-1.83441 l 13.89689,6.17965 c 1.41232,0.63208 3.04905,0.48264 4.32618,-0.39107 1.27394,-0.86873 2.01306,-2.33492 1.9438,-3.8821 l -0.6751,-15.18683 c 0.98805,-0.80909 1.97304,-1.62899 2.94699,-2.46495 l 14.82848,3.34797 c 1.50889,0.33924 3.0875,-0.12145 4.16637,-1.23069 1.08708,-1.10031 1.51569,-2.68585 1.14493,-4.1872 l -3.62517,-14.79188 c 0.80019,-0.97438 1.59484,-1.96147 2.37606,-2.95537 l 15.23677,0.38656 c 1.5408,0.0429 2.99681,-0.72184 3.84343,-2.01487 0.84662,-1.29302 0.96724,-2.92856 0.31347,-4.32615 l -6.44686,-13.81109 c 0.60014,-1.11597 1.18791,-2.24007 1.76106,-3.3631 l 15.00512,-2.58837 c 1.52596,-0.26299 2.8066,-1.29575 3.37882,-2.72964 0.58286,-1.43403 0.37561,-3.06246 -0.54026,-4.30733 l -8.9921,-12.25396 c 0.37684,-1.22693 0.73199,-2.45413 1.07853,-3.68324 l 14.18627,-5.45612 c 1.44424,-0.55273 2.49683,-1.81525 2.7869,-3.33515 0.28688,-1.51501 -0.23533,-3.07304 -1.37374,-4.11811 l -11.22092,-10.26659 c 0.13508,-1.27243 0.23953,-2.54366 0.33538,-3.81 l 12.86564,-8.13036 c 1.31269,-0.82568 2.10012,-2.26996 2.08077,-3.8127 -0.0136,-1.54602 -0.81688,-2.97245 -2.14716,-3.77295 l -13.04085,-7.90509 c -0.11927,-1.25555 -0.25496,-2.5084 -0.41338,-3.75793 l 11.05706,-10.50061 c 1.12174,-1.06702 1.6156,-2.63189 1.29698,-4.14847 -0.31275,-1.5092 -1.38927,-2.7519 -2.84409,-3.28141 l -14.32987,-5.20101 c -0.35848,-1.2078 -0.73324,-2.4178 -1.1285,-3.61793 l 8.79324,-12.454234 c 0.89448,-1.258187 1.06671,-2.896737 0.45939,-4.316773 -0.60657,-1.426602 -1.89825,-2.428635 -3.42589,-2.663834 l -15.04209,-2.301747 c -0.59915,-1.125616 -1.20253,-2.250131 -1.82856,-3.361587 l 6.17841,-13.902782 c 0.62643,-1.408992 0.47785,-3.047137 -0.39337,-4.322654 -0.86711,-1.276359 -2.33899,-2.0122 -3.88214,-1.943774 l -15.19157,0.666917 c -0.80498,-0.988911 -1.62261,-1.967328 -2.46019,-2.938805 L 263.699,48.353796 c 0.34337,-1.509698 -0.1188,-3.08378 -1.22482,-4.167547 -1.10516,-1.079695 -2.6867,-1.514415 -4.18485,-1.148557 l -14.79653,3.632246 c -0.97272,-0.80275 -1.96057,-1.596223 -2.95768,-2.3725 l 0.38885,-15.240326 c 0.0404,-1.542384 -0.72183,-2.996819 -2.01485,-3.843455 z m -15.18904,22.686884 c 1.93217,1.330311 3.35605,3.39901 3.8172,5.890336 0.91257,4.986734 -2.38081,9.771567 -7.36587,10.69228 -4.97927,0.928059 -9.75779,-2.363201 -10.67692,-7.350683 -0.9133,-4.980241 2.38166,-9.767505 7.36591,-10.692312 2.48961,-0.46404 4.92749,0.130067 6.85968,1.460379 z m 9.34493,24.178442 c 24.31381,23.284544 36.59359,54.694363 35.07865,87.973913 l -23.00449,14.89847 c -3.87727,2.51333 -4.99072,7.69237 -2.49051,11.56812 l 12.92822,19.43354 c -17.13777,32.61383 -46.75214,52.27487 -76.32406,58.22172 l -14.29166,-14.50234 c -3.24793,-3.28302 -8.5412,-3.31144 -11.82906,-0.0561 l -15.73924,15.76276 C 121.98366,262.99289 106.96228,257.03112 93.069698,247.93472 78.858745,238.62991 67.530344,226.52124 59.119643,212.98316 l 7.82107,-20.34411 c 1.665862,-4.31032 -0.471905,-9.14793 -4.778911,-10.80809 L 44.450048,175.01371 C 39.01582,138.49905 46.646513,109.61407 68.147374,82.227494 l 20.832516,3.147791 c 4.554656,0.743508 8.855318,-2.348625 9.603695,-6.910685 l 0.205954,-1.259019 0.09527,0.148571 C 100.92806,64.111865 101.9514,57.765573 102.53924,54.231218 128.43061,40.923134 160.91701,34.930014 198.10301,49.3892 l 3.73744,19.974884 c 0.83935,4.544003 5.19569,7.544449 9.73882,6.701013 z M 90.731027,66.36955 c -0.844216,5.387221 -5.663526,8.494741 -10.658023,7.674765 -4.997803,-0.815113 -8.380653,-5.530939 -7.558234,-10.534546 0.82243,-5.003586 6.275509,-8.35309 10.535501,-7.582953 4.259983,0.770148 8.158367,4.234716 7.680756,10.442734 z m 178.728233,111.2055 c 0.98411,0.67032 1.85454,1.54274 2.54094,2.60648 2.74713,4.25248 1.52164,9.93895 -2.7341,12.69105 -4.25481,2.75615 -9.9276,1.53765 -12.67558,-2.71892 -2.74225,-4.24926 -1.51888,-9.93009 2.73761,-12.68873 3.18995,-2.06526 7.17711,-1.89809 10.13113,0.11012 z M 50.43411,188.04533 c 3.58733,2.30401 5.188402,6.88412 3.589219,11.02259 -1.828497,4.72562 -7.141606,7.08633 -11.861422,5.26514 -4.72553,-1.81786 -7.073825,-7.12434 -5.248626,-11.85567 1.83496,-4.73548 7.136996,-7.09241 11.862517,-5.27456 0.590142,0.22808 1.145972,0.51313 1.658256,0.84258 z m 113.51714,74.85904 c 0.50533,0.33956 0.9876,0.73047 1.43183,1.18068 3.5606,3.59701 3.52323,9.41564 -0.0795,12.97952 -3.60271,3.56394 -9.41771,3.53357 -12.97585,-0.0618 -3.55577,-3.60439 -3.51281,-9.40834 0.0948,-12.97968 3.15161,-3.12199 7.98752,-3.4894 11.52882,-1.11877 z" />
  </g>
  <path
     style="fill:#ffe320;fill-opacity:1;fill-rule:evenodd;stroke:#303030;stroke-width:4.7303195;stroke-miterlimit:4;stroke-dasharray:none;stroke-opacity:1"
     inkscape:connector-curvature="0"
     id="Path"
     d="m 135.49796,85.056583 -38.768624,77.843977 27.882384,-4.43732 -31.145769,75.55905 79.215009,-100.89932 -29.42168,2.83872 30.32273,-58.678479 z" />
  <g
     id="g1028"
     transform="translate(-42.354895,-382.03486)">
    <path
       id="path1009"
       d="m 100.95763,513.78982 c 0.17926,-0.95183 0.31946,-1.91315 0.54462,-2.85394 1.14338,-4.77582 3.74509,-8.58658 7.70772,-11.46448 1.48618,-1.07912 3.00846,-2.10969 4.53712,-3.12828 0.78705,-0.52454 1.20095,-1.10759 0.95697,-2.12991 -0.36505,-1.5296 -0.71641,-3.07771 -0.87699,-4.63811 -0.64996,-6.31661 0.66552,-12.15241 4.61632,-17.22668 0.72543,-0.9316 1.74558,-1.7143 2.77817,-2.30777 1.55651,-0.89457 3.22039,-0.57527 4.46305,0.72605 1.91222,2.00232 3.13434,4.44142 3.96169,7.04173 1.99563,6.27118 0.85116,12.05609 -3.03413,17.29841 -0.74519,1.00536 -1.74542,1.84501 -2.71717,2.65384 -1.61907,1.34785 -2.42261,2.98279 -2.17909,5.10757 0.0585,0.51178 0.0696,1.04488 -0.005,1.55246 -0.1265,0.86019 0.25006,1.11973 1.05143,1.29292 5.64409,1.21932 9.44831,5.36479 10.07461,10.89357 0.67066,5.92014 -2.48827,11.31091 -8.00492,13.65058 -0.4749,0.20151 -0.9509,0.44518 -1.45055,0.53372 -0.90779,0.16105 -1.04675,0.66645 -1.06277,1.51232 -0.0444,2.32551 -0.0887,4.66565 -0.38201,6.96829 -0.45219,3.55074 -3.2831,5.88294 -6.89096,5.85789 -2.71047,-0.0188 -5.08562,-0.88212 -6.85718,-3.02978 -1.86119,-2.25658 -1.94833,-5.87423 -0.23761,-8.18636 1.20516,-1.62887 3.33414,-1.99205 5.0419,-0.86003 1.6032,1.06263 1.97603,2.91697 0.98358,4.71747 -0.18704,0.33938 -0.44674,0.8745 -0.31043,1.10401 0.23029,0.38746 0.72091,0.74784 1.15941,0.83654 0.26048,0.0526 0.7581,-0.37206 0.9218,-0.69649 0.24835,-0.49218 0.39462,-1.08052 0.41547,-1.63447 0.0633,-1.68178 0.0415,-3.36651 0.0613,-5.05 0.008,-0.67921 -0.2902,-0.99337 -0.98311,-1.13482 -2.96193,-0.60452 -5.81681,-1.48883 -8.17048,-3.5176 -3.24188,-2.79403 -5.29166,-6.24535 -5.82351,-10.53972 -0.049,-0.39617 -0.19077,-0.78083 -0.28942,-1.17046 0,-0.72621 0,-1.45241 0,-2.17847 z m 14.92544,-11.43694 c -0.8426,0.47647 -1.59588,0.8675 -2.31461,1.31424 -4.74066,2.94746 -7.08328,8.47081 -5.9133,13.21052 1.00101,4.05599 3.20484,7.01186 7.48599,8.01862 0.83015,0.19529 0.88881,0.16059 0.88928,-0.68777 0.003,-3.86024 0.003,-7.72048 -0.002,-11.58088 -3.1e-4,-0.27153 -0.0402,-0.54306 -0.066,-0.86951 -1.06014,0.23947 -1.84003,0.75312 -2.48112,1.48789 -0.85069,0.97517 -1.35469,2.1198 -1.67664,3.36666 -0.0615,0.23761 -0.34995,0.52096 -0.58196,0.57465 -0.16323,0.038 -0.52127,-0.23419 -0.5997,-0.44099 -0.8286,-2.18173 -1.01065,-4.37264 0.0845,-6.53166 1.02046,-2.01197 2.7111,-3.29368 4.71125,-4.20444 0.47116,-0.21442 0.67159,-0.46914 0.62101,-0.99213 -0.0798,-0.82144 -0.10067,-1.64879 -0.157,-2.6652 z m 4.56373,-9.51226 c 2.75794,-1.86228 4.1201,-4.49386 4.39428,-7.7197 0.28102,-3.30567 -0.42247,-6.40718 -2.01462,-9.40802 -4.17144,4.90295 -4.64682,12.21403 -2.37966,17.12772 z m 1.51932,31.81695 c 3.41444,-0.71127 5.74898,-4.11653 5.2652,-7.77822 -0.37703,-2.85472 -3.08019,-5.11861 -5.2652,-5.0976 0,4.27134 0,8.543 0,12.87582 z"
       inkscape:connector-curvature="0"
       style="clip-rule:evenodd;fill-rule:evenodd;stroke-width:0.15560465" />
    <path
       id="path1011"
       d="m 217.70244,568.3031 c 0,4.91472 -0.0602,9.58719 0.0137,14.2577 0.11737,7.45431 0.21708,14.91156 0.5208,22.35998 0.35145,8.61295 -6.19269,14.53265 -13.86473,15.62361 -4.46651,0.63457 -8.91372,0.26612 -13.11345,-1.59933 -4.55184,-2.02206 -7.33041,-5.38027 -7.50008,-10.50848 -0.17229,-5.21616 2.25058,-8.95786 6.84033,-11.30129 3.81167,-1.94653 7.96302,-2.45098 12.16895,-2.63439 0.86473,-0.0373 1.7324,-0.006 2.86652,-0.006 0,-1.11581 0.0186,-2.12634 -0.003,-3.13557 -0.22689,-10.71903 -0.44855,-21.43837 -0.69571,-32.1574 -0.18341,-7.94176 -0.41454,-15.88254 -0.5973,-23.8243 -0.0471,-2.03611 0.22591,-2.21429 2.25123,-2.12798 11.36112,0.48451 22.72288,0.94777 34.08432,1.42313 5.43552,0.22754 10.87202,0.43481 16.30493,0.71466 2.26529,0.11672 2.40947,0.29097 2.52847,2.47812 0.26253,4.83528 0.45312,9.67449 0.71401,14.50977 0.50641,9.39692 1.0671,18.79122 1.55553,28.18945 0.44005,8.47498 1.01054,16.94964 1.16649,25.43116 0.19419,10.55294 -7.24769,17.81632 -17.82483,17.88236 -4.04476,0.0252 -7.91038,-0.65255 -11.42846,-2.71318 -4.06732,-2.38233 -6.02857,-5.95142 -5.83209,-10.70562 0.18897,-4.56883 2.18127,-8.01466 6.22833,-10.18286 3.73778,-2.00211 7.8051,-2.57653 11.98293,-2.59124 1.40089,-0.005 2.80178,-9.8e-4 4.39817,-9.8e-4 -0.12979,-1.84976 -0.24519,-3.5681 -0.3727,-5.28546 -0.51949,-6.99792 -1.06873,-13.99354 -1.53558,-20.99473 -0.0732,-1.0939 -0.54009,-1.37604 -1.49309,-1.43293 -9.12262,-0.54499 -18.24394,-1.11254 -27.36657,-1.66341 -0.69341,-0.0415 -1.39043,-0.005 -1.99721,-0.005 z m 29.03914,-9.53227 c -3.2e-4,0.0196 -9.8e-4,0.0386 -0.001,0.0582 0.5986,0 1.19754,3.3e-4 1.79647,0 2.29897,-10e-4 2.38004,-0.0755 2.21985,-2.42679 -0.2112,-3.09406 -0.46784,-6.18485 -0.66432,-9.27956 -0.14189,-2.22965 -0.38937,-2.49381 -2.60628,-2.5896 -6.30515,-0.27201 -12.60998,-0.55219 -18.91448,-0.83629 -4.0768,-0.18373 -8.15295,-0.3776 -12.22878,-0.57049 -1.09129,-0.0516 -2.01355,0.10854 -1.93771,1.52316 0.19845,3.6943 0.42076,7.38729 0.59861,11.08257 0.0611,1.25999 0.73036,1.65099 1.89848,1.70101 9.94714,0.42795 19.89297,0.88762 29.83946,1.3378 z"
       inkscape:connector-curvature="0"
       style="clip-rule:evenodd;fill-rule:evenodd;stroke-width:0.32692903" />
    <path
       id="path1013"
       d="m 258.89224,473.06986 c -0.0279,0.49979 -0.0663,0.85212 -0.0642,1.20424 0.0364,6.25589 0.0755,12.51177 0.11938,18.76765 0.0464,6.61427 0.12587,13.22853 0.13731,19.84301 0.005,3.48621 -1.19302,6.47135 -4.0227,8.6594 -4.79862,3.71096 -13.28552,2.91432 -17.42071,-1.5257 -3.66022,-3.93009 -2.17208,-11.32998 3.59891,-13.03055 3.25909,-0.96051 6.51582,-0.90329 9.80772,-0.32449 0.13364,0.0235 0.26922,0.0361 0.48144,0.0641 0.0637,-0.269 0.1684,-0.49957 0.16537,-0.72885 -0.0917,-6.97178 -0.20121,-13.94312 -0.29231,-20.91491 -0.0585,-4.49334 -0.0902,-8.98669 -0.13817,-13.48025 -0.0248,-2.33552 -0.0382,-4.67167 -0.0976,-7.00632 -0.0257,-1.00908 0.3152,-1.46612 1.40157,-1.53629 2.57666,-0.16645 5.05617,0.0363 7.51755,0.93654 5.3377,1.95252 10.40208,4.36964 14.64412,8.23172 2.55702,2.32817 4.10151,5.16067 3.812,8.75763 -0.17466,2.16583 -1.17963,3.96355 -2.51168,5.61166 -1.39423,1.72519 -3.01298,3.19628 -5.04582,4.11835 -0.44646,0.20251 -1.0557,0.0471 -1.58982,0.0564 0.0859,-0.49418 0.0758,-1.03174 0.27526,-1.47475 0.69064,-1.5324 1.62674,-2.97434 2.15438,-4.55596 1.06909,-3.20577 0.12997,-5.85109 -2.59264,-7.86816 -2.56263,-1.89898 -5.49572,-2.92339 -8.59852,-3.5145 -0.52483,-0.10039 -1.05441,-0.17659 -1.74094,-0.28994 z"
       inkscape:connector-curvature="0"
       style="clip-rule:evenodd;fill-rule:evenodd;stroke-width:0.21589135" />
    <path
       id="path1015"
       d="m 778.913,424.29 c 0,-13.935 0.117,-27.231 -0.024,-40.523 -0.292,-27.464 -0.716,-54.927 -1.097,-82.39 -0.324,-23.468 -0.689,-46.936 -0.981,-70.404 -0.079,-6.345 0.361,-6.74 6.828,-6.842 7.825,-0.123 15.659,0.008 23.477,-0.307 4.65,-0.187 5.968,1.677 5.984,6.174 0.15,40.458 0.526,80.914 0.777,121.372 0.21,33.966 0.389,67.931 0.489,101.897 0.078,26.36 -13.393,44.082 -38.995,49.961 -20.101,4.616 -39.125,1.234 -55.614,-11.715 -12.173,-9.562 -16.817,-22.368 -13.644,-37.674 3.138,-15.128 12.428,-24.588 27.197,-28.761 13.21,-3.732 26.586,-3.739 40.041,-1.611 1.632,0.259 3.27,0.485 5.562,0.823 z"
       inkscape:connector-curvature="0"
       style="clip-rule:evenodd;fill-rule:evenodd" />
  </g>
</svg>
